# xmcd CD database file
#
# Track frame offsets:
#	150
#	21432
#	36477
#
# Disc length: 852 seconds
#
# Revision: 0
# Processed by: cddbd v1.5.1PL0 Copyright (c) Steve Scherf et al.
# Submitted via: CDex 1.51
#
DISCID=23035203
DTITLE=桑田佳祐 - 白い恋人達
DYEAR=2001
DGENRE=Rock
TTITLE0=白い恋人達
TTITLE1=踊ろよベイビー1962
TTITLE2=あの素晴らしい愛をもう一度~アミダばばあの唄(MEDLEY)
EXTD=YEAR: 2001
EXTT0=
EXTT1=
EXTT2=
PLAYORDER=
